<?xml version="1.0" encoding="UTF-8" standalone="no"?>
<svg
   version="1.1"
   width="1000"
   height="1000"
   id="svg228"
   sodipodi:docname="favicon.svg"
   inkscape:version="1.2.2 (b0a84865, 2022-12-01)"
   xmlns:inkscape="http://www.inkscape.org/namespaces/inkscape"
   xmlns:sodipodi="http://sodipodi.sourceforge.net/DTD/sodipodi-0.dtd"
   xmlns="http://www.w3.org/2000/svg"
   xmlns:svg="http://www.w3.org/2000/svg">
  <defs
     id="defs232" />
  <sodipodi:namedview
     id="namedview230"
     pagecolor="#ffffff"
     bordercolor="#000000"
     borderopacity="0.25"
     inkscape:showpageshadow="2"
     inkscape:pageopacity="0.0"
     inkscape:pagecheckerboard="0"
     inkscape:deskcolor="#d1d1d1"
     showgrid="false"
     inkscape:zoom="0.472"
     inkscape:cx="-231.99153"
     inkscape:cy="554.02542"
     inkscape:window-width="1920"
     inkscape:window-height="1027"
     inkscape:window-x="1728"
     inkscape:window-y="25"
     inkscape:window-maximized="1"
     inkscape:current-layer="svg228" />
  <style
     id="style182">
    #light-icon {
      display: inline;
    }
    #dark-icon {
      display: none;
    }

    @media (prefers-color-scheme: dark) {
      #light-icon {
        display: none;
      }
      #dark-icon {
        display: inline;
      }
    }
  </style>
  <g
     id="g677"
     transform="matrix(27.762123,0,0,27.762123,16969.056,-11381.248)">
    <path
       d="m -584.56389,436.7097 c -0.2324,0.1743 -0.5229,0.2905 -0.8715,0.2905 -0.1743,0 -0.3486,0 -0.5228,-0.1162 -0.2324,-0.0581 -0.4067,-0.2324 -0.5229,-0.4067 -1.3944,1.8011 -3.3697,3.1373 -5.6935,3.7764 1.2781,-0.8715 2.3238,-2.4401 3.021,-4.3573 h 2.3239 v -0.1162 l -0.1162,-0.9296 h -1.8591 c 0.3486,-1.2781 0.581,-2.6725 0.6391,-4.183 h 0.6971 l -0.1162,-1.0457 h -0.5228 c 0,-0.6972 -0.0581,-1.3944 -0.1743,-2.0334 -0.3486,0.1161 -0.6972,0.1742 -1.0458,0.2904 0.0581,0.581 0.1162,1.162 0.1743,1.743 h -3.6601 l -0.2324,1.0457 h 3.8925 c 0,1.5105 -0.2905,2.963 -0.6391,4.183 h -4.4154 v -2.3239 l -0.5228,0.3486 c -0.1743,0.1162 -0.3486,0.1743 -0.5229,0.2324 v 1.7429 h -4.4154 c -0.1743,-0.6391 -0.3486,-1.2781 -0.4648,-1.9753 -0.1162,0 -0.2324,0.1162 -0.3486,0.1162 -0.2323,0.1162 -0.4066,0.1743 -0.639,0.2905 0.1162,0.5229 0.2324,1.0457 0.3486,1.5105 h -3.31159 c -0.29048,0.1743 -0.58097,0.3486 -0.87146,0.5229 -0.23239,0.1743 -0.40668,0.2905 -0.58097,0.4648 2.03341,3.8344 6.10022,6.5069 10.74802,6.5069 4.6478,0 8.1917,-2.3239 10.3413,-5.7517 l -0.1162,0.1162 z m -18.88162,-0.8133 h 3.07912 c 0.6972,1.9172 1.743,3.4858 3.0211,4.3573 -2.5563,-0.6391 -4.70588,-2.2077 -6.10022,-4.3573 z m 8.19172,4.183 c -1.6848,-0.2905 -3.0792,-1.8591 -4.0087,-4.1249 h 4.0087 z m 1.0457,-4.183 h 4.0088 c -0.9296,2.2658 -2.382,3.8344 -4.0088,4.1249 z"
       fill="#ff6444"
       id="path351" />
    <path
       d="m -575.21019,419.22244 c -1.6848,-1.10385 -5.2868,-0.34858 -9.2374,1.22005 l -6.9717,-6.79739 h -2.3239 c 0,0.0581 5.5774,8.36601 5.5774,8.36601 -2.3239,1.04575 -4.5897,2.20769 -6.565,3.31159 l -2.9049,-2.14964 -1.22,0.11619 2.9629,3.77635 0.2324,4.764 0.9877,-0.6972 0.6971,-3.5439 c 2.2077,-0.5229 4.7059,-1.162 7.146,-1.8592 l 1.2781,9.8766 1.801,-1.5105 0.6972,-9.7023 c 3.9506,-1.45243 7.146,-3.25345 7.7269,-5.22876 z"
       fill="#ff6444"
       id="path353" />
    <path
       d="m -591.76789,419.04815 -0.581,-0.87146 c -0.7552,-0.17429 -1.5686,-0.23239 -2.382,-0.23239 -6.1002,0 -11.09653,4.4735 -12.02609,10.3413 0.75527,-0.5809 1.45243,-1.0457 2.1496,-1.5105 0.17429,-0.4648 0.34858,-0.9296 0.58097,-1.3362 h 1.68482 c 0.58098,-0.3486 1.22,-0.6972 1.8591,-1.0458 h -2.96294 c 1.39433,-2.1496 3.54394,-3.71822 6.10024,-4.35729 -0.6972,0.46477 -1.2782,1.16194 -1.801,1.91721 0.0581,0 0.1742,0 0.2323,-0.0581 l 1.2201,-0.11619 c 0.6972,-0.81337 1.5686,-1.33624 2.4401,-1.51054 v 2.90487 l 0.6971,0.52284 c 0.1162,-0.0581 0.2324,-0.11616 0.3486,-0.17425 v -3.25346 c 0.9877,0.1743 1.9172,0.81337 2.7306,1.80102 l 1.3362,-0.63907 z"
       fill="#ff6444"
       id="path355" />
    <path
       d="m -597.17099,427.5304 -1.8591,-2.382 c -1.2781,0.639 -2.67244,1.4524 -4.18297,2.382 -1.68482,1.0457 -3.42774,2.2657 -4.99637,3.7763 -0.81336,0.7552 -1.56863,1.6267 -2.1496,2.6725 -0.29049,0.5228 -0.58097,1.1038 -0.75527,1.6848 0,0.1743 -0.0581,0.2905 -0.11619,0.4648 v 1.3943 c 0,0.6391 0.23239,1.2781 0.58097,1.8591 0.34859,0.581 0.81337,1.0458 1.27814,1.3362 0.98766,0.581 1.91722,0.6972 2.73058,0.6972 1.62672,0 2.84677,-0.2324 3.71823,-0.4067 0.29048,0 0.52287,-0.1162 0.69716,-0.1743 -2.49818,-0.1162 -4.06681,-0.7552 -4.93827,-1.1619 -0.23239,-0.1162 -0.46478,-0.2324 -0.63907,-0.4067 -0.11619,-0.0581 -0.11619,-0.1162 -0.11619,-0.1162 l -0.1743,-0.1743 c -0.40668,-0.4648 -0.40668,-0.8714 -0.23238,-1.4524 0,-0.0581 0,-0.1162 0.0581,-0.1743 l 0.1162,-0.3486 v -0.1743 c 0,-0.0581 0,-0.1162 0.11619,-0.2324 0.1162,-0.2905 0.34859,-0.5809 0.58097,-0.8714 0.46478,-0.581 1.10385,-1.1039 1.85912,-1.6268 1.45243,-0.9876 3.13725,-1.801 4.70586,-2.4981 1.3944,-0.581 2.7306,-1.1039 3.9506,-1.4525 l -0.1743,-2.7305 z"
       fill="#ff6444"
       id="path357" />
  </g>
</svg>
