<svg width="366" height="139" viewBox="0 0 366 139" fill="none" xmlns="http://www.w3.org/2000/svg">
<path d="M355.041 31H10.9589C4.90647 31 0 35.4976 0 41.0456V128.92C0 134.468 4.90647 138.966 10.9589 138.966H355.041C361.094 138.966 366 134.468 366 128.92V41.0456C366 35.4976 361.094 31 355.041 31Z" fill="#FF6444"/>
<path d="M106.831 84.6255C106.434 84.9428 105.927 85.1591 105.324 85.1591C105.023 85.1591 104.721 85.1591 104.42 84.9428C104.023 84.8418 103.721 84.5246 103.516 84.2073C101.105 87.4811 97.7077 89.9039 93.694 91.0577C95.8995 89.4713 97.7077 86.6302 98.8995 83.1545H102.913V82.9381L102.708 81.2508H99.5022C100.105 78.9288 100.502 76.405 100.598 73.6504H101.804L101.598 71.7467H100.694C100.694 70.4776 100.598 69.2084 100.393 68.0547C99.7899 68.271 99.1871 68.372 98.5844 68.5883C98.6803 69.6411 98.7899 70.6939 98.8858 71.7467H92.5707L92.1734 73.6504H98.8858C98.8858 76.3906 98.3789 79.0298 97.7899 81.2508H90.1734V77.0251L89.2693 77.6597C88.968 77.876 88.6666 77.977 88.3652 78.0779V81.2364H80.7488C80.4474 80.0826 80.146 78.9144 79.9406 77.6453C79.7351 77.6453 79.5433 77.8616 79.3378 77.8616C78.9406 78.0779 78.6392 78.1789 78.2419 78.3952C78.4474 79.3471 78.6392 80.2989 78.8447 81.1354H73.1323C72.6255 81.4527 72.1323 81.77 71.6255 82.0873C71.2282 82.4045 70.9269 82.6209 70.6255 82.9381C74.1323 89.904 81.146 94.7497 89.1597 94.7497C97.1734 94.7497 103.283 90.5241 106.995 84.3082L106.79 84.5246V84.6255H106.831ZM74.2693 83.1545H79.5844C80.7899 86.6302 82.5844 89.4857 84.7899 91.0577C80.3789 89.9039 76.6803 87.0484 74.2693 83.1545ZM88.3926 90.7404C85.4885 90.2068 83.0775 87.3657 81.4748 83.2554H88.3926V90.7404ZM90.2008 83.1545H97.1186C95.5159 87.2647 93.009 90.1203 90.2008 90.6395V83.1545Z" fill="white"/>
<path d="M122.954 52.883C120.05 50.8784 113.845 52.2484 107.023 55.104L94.9953 42.7588H90.9816C90.9816 42.8597 100.598 57.9451 100.598 57.9451C96.5843 59.8488 92.6802 61.9544 89.283 63.9591L84.2693 60.0507L82.1597 60.267L87.2693 67.1175L87.6665 75.7707L89.3651 74.5015L90.5706 68.0693C94.3788 67.1175 98.6802 65.9637 102.886 64.6946L105.091 82.6211L108.201 79.8809L109.406 62.2717C116.214 59.6325 121.721 56.3587 122.735 52.7821L122.94 52.883H122.954Z" fill="white"/>
<path d="M94.4064 52.5657L93.4065 50.9793C92.1051 50.662 90.7078 50.561 89.2969 50.561C78.7763 50.561 70.1599 58.6806 68.5571 69.3384C69.8585 68.2856 71.064 67.4347 72.2695 66.5983C72.5708 65.7474 72.8722 64.9109 73.2695 64.1754H76.1736C77.1736 63.5408 78.2832 62.9062 79.3791 62.2717H74.2695C76.6804 58.3633 80.3791 55.5222 84.79 54.3684C83.5845 55.2193 82.5845 56.474 81.6804 57.8441C81.7763 57.8441 81.9818 57.8441 82.0777 57.7432L84.1873 57.5268C85.3927 56.0558 86.8859 55.104 88.3927 54.7867V60.0651L89.5982 61.017C89.8037 60.916 89.9955 60.8006 90.201 60.6997V54.7867C91.8996 55.104 93.5023 56.2577 94.9133 58.0605L97.2147 56.9067L94.4064 52.5801V52.5657Z" fill="white"/>
<path d="M85.0913 67.9682L81.8858 63.6416C79.6804 64.7954 77.2831 66.2808 74.6667 67.9682C71.7626 69.8719 68.7626 72.0784 66.0502 74.8186C64.653 76.1887 63.3516 77.7751 62.3379 79.6644C61.8311 80.6162 61.3379 81.6691 61.0365 82.7219C61.0365 83.0391 60.9406 83.2555 60.8311 83.5728V86.111C60.8311 87.2648 61.2283 88.433 61.8311 89.4858C62.4338 90.5386 63.2283 91.3895 64.0365 91.9086C65.7352 92.9614 67.3379 93.1778 68.7489 93.1778C71.5571 93.1778 73.653 92.7595 75.1598 92.4423C75.6667 92.4423 76.0639 92.2259 76.3653 92.125C72.0639 91.9086 69.3516 90.7549 67.8448 90.0194C67.4475 89.803 67.0365 89.6011 66.7489 89.2838C66.5434 89.1829 66.5434 89.0675 66.5434 89.0675L66.242 88.7502C65.5434 87.8993 65.5434 87.1638 65.8448 86.111C65.8448 86.0101 65.8448 85.8947 65.9406 85.7937L66.1461 85.1592V84.8419C66.1461 84.7409 66.1461 84.6256 66.3516 84.4236C66.5571 83.89 66.9543 83.3708 67.3516 82.8372C68.1598 81.7844 69.2557 80.8326 70.5571 79.8807C73.0639 78.0924 75.968 76.6069 78.6667 75.3522C81.0776 74.2994 83.379 73.3476 85.4749 72.713L85.1735 67.7519L85.0776 67.9682H85.0913Z" fill="white"/>
<path d="M126.489 81.28C126.489 79.8233 126.612 78.3811 126.708 76.9966C126.297 76.9678 125.872 76.9245 125.557 76.8236C124.461 76.5496 124.119 75.8717 124.119 74.8622C124.119 73.5498 124.721 72.5691 125.982 72.6989C126.297 72.7277 126.653 72.7277 127.105 72.771C127.228 71.5163 127.393 70.3048 127.516 69.3674C127.708 68.0839 128.804 67.5791 130.119 67.5791C131.886 67.5791 132.872 68.2569 132.776 69.5405C132.749 70.1174 132.489 71.7326 132.365 72.9441C133.365 72.9441 134.42 72.9152 135.571 72.8143C136.762 72.6845 137.365 73.6507 137.365 74.9055C137.365 75.915 136.817 76.6649 135.571 76.7947C134.543 76.8957 133.297 76.9245 131.982 76.9245C131.858 78.41 131.817 79.9676 131.817 81.4098C131.817 85.6642 132.297 86.7747 132.968 86.7747C133.42 86.7747 133.927 86.3709 134.762 85.3614C135.269 84.7556 135.762 84.2797 136.146 84.2797C137.393 84.2797 138.393 85.3325 138.393 86.7459C138.393 87.4814 137.845 88.0006 136.886 89.0678C135.667 90.4812 133.461 91.4907 131.502 91.4907C128.105 91.4907 126.502 88.4188 126.502 81.2655L126.489 81.28Z" fill="white"/>
<path d="M144.434 62.9497C145.324 62.9497 146.639 63.3824 146.543 64.8101C146.351 68.0551 146.036 71.8336 145.899 76.1891C146.858 74.0258 149.077 72.4394 151.31 72.4394C154.995 72.4394 156.598 75.5833 156.598 81.0493C156.598 84.1211 155.927 87.2507 155.899 89.789C155.899 91.0004 154.995 91.6494 153.297 91.6494C152.009 91.6494 150.995 91.0148 150.995 89.789C151.023 87.3228 151.667 84.2509 151.667 81.2223C151.667 79.2321 151.16 77.2707 149.776 77.2707C147.571 77.2707 146.256 80.6455 146.119 84.2221C146.091 85.2028 145.995 88.5775 145.954 89.5582C145.886 90.8418 144.899 91.4475 143.845 91.4475C141.571 91.4475 140.708 90.8129 140.735 88.7073C140.803 81.3233 141.214 71.6606 141.625 64.8101C141.721 63.3968 142.817 62.9497 144.42 62.9497H144.434Z" fill="white"/>
<path d="M163.804 72.4252C165.598 72.4252 166.502 73.103 166.502 74.4443C166.502 80.5592 165.763 83.4868 165.667 89.7027C165.639 90.9574 164.612 91.5631 163.009 91.5631C160.735 91.5631 160.352 90.4094 160.352 89.3998C160.352 88.3903 161.242 78.9728 161.242 74.4443C161.242 73.0886 162.626 72.4252 163.804 72.4252ZM164.023 63.9307C166.776 63.9307 167.352 65.5892 167.352 66.6997C167.352 68.589 166.009 69.7716 164.078 69.7716C162.283 69.7716 161.132 68.863 161.132 67.0747C161.132 65.1854 162.42 63.9307 164.023 63.9307Z" fill="white"/>
<path d="M173.42 72.1221C175.023 72.1221 175.694 72.9585 175.694 73.6796C175.694 74.2565 175.434 75.2661 175.434 76.5208C176.201 74.7324 177.448 72.4682 180.845 72.4682C184.598 72.4682 186.489 75.6122 186.489 80.2272C186.489 83.8039 185.585 86.6017 185.585 89.6159C185.585 90.5966 184.694 91.5052 182.831 91.5052C180.968 91.5052 180.324 90.5966 180.324 89.4428C180.324 86.3998 181.324 84.3086 181.324 80.9339C181.324 78.2658 180.653 77.3572 179.434 77.3572C177.612 77.3572 176.324 80.4003 175.681 82.8232C175.804 85.3182 175.845 87.8564 175.708 89.7457C175.639 90.6831 174.872 91.534 173.05 91.534C170.544 91.534 170.256 90.1495 170.256 88.6641C170.256 87.0776 170.352 85.2893 170.708 83.6019C170.544 78.7129 170.393 75.6699 170.708 73.7518C170.927 72.5403 171.708 72.1365 173.407 72.1365L173.42 72.1221Z" fill="white"/>
<path d="M194.064 63.3247C195.955 63.3247 196.311 64.2333 196.311 65.3149C196.311 66.9302 195.639 70.478 195.283 78.886C195.831 78.5543 199.544 75.3094 201.954 73.247C202.598 72.6701 203.105 72.4394 203.818 72.4394C205.708 72.4394 206.256 74.5017 206.256 75.2805C206.256 75.7132 206.133 76.1891 205.612 76.6362C204.201 77.7899 201.667 79.7802 199.845 81.1935C200.393 82.1021 201.037 83.2559 201.639 84.2654C202.434 85.6211 203.05 86.3566 203.818 86.3566C204.42 86.3566 204.941 85.722 205.612 84.9C205.968 84.4673 206.379 84.1644 206.859 84.1644C208.05 84.1644 209.133 85.3759 209.133 86.5296C209.133 87.3084 208.681 88.0439 208.105 88.592C206.818 89.8755 204.804 91.361 202.626 91.361C200.187 91.361 198.845 89.8034 197.502 87.5824C196.407 85.6932 195.927 84.4385 195.201 83.1261C195.133 85.5201 195.037 87.7555 195.009 89.6015C194.982 90.986 194.215 91.4187 192.639 91.4187C190.626 91.4187 189.818 90.986 189.845 89.6015C190.105 81.5396 190.489 72.8576 191.187 65.0265C191.283 63.8727 191.886 63.3391 194.078 63.3391L194.064 63.3247Z" fill="white"/>
<path d="M210.694 89.0967C210.694 87.2363 211.817 85.4912 214.064 85.4912C216.077 85.4912 217.05 86.7748 217.05 88.39C217.05 90.2072 215.612 91.7359 213.776 91.7359C212.077 91.7359 210.694 90.7264 210.694 89.0967Z" fill="white"/>
<path d="M232.694 75.8719C232.694 76.7805 232.215 77.9342 230.735 77.9342C230.037 77.9342 229.543 77.4583 228.941 76.9968C228.297 76.4632 227.653 76.0161 226.283 76.0161C224.913 76.0161 224.174 76.5209 224.174 77.2997C224.174 78.1794 224.941 78.4534 227.886 79.8668C230.324 81.0494 231.995 83.1406 231.995 85.6067C231.995 88.7507 228.886 91.5053 225.365 91.5053C223.831 91.5053 222.379 91.1015 221.461 90.3948C220.311 89.6881 219.598 88.6786 219.598 87.5537C219.598 86.5441 220.242 85.6355 221.42 85.6355C221.968 85.6355 222.571 85.9384 222.995 86.4432C223.639 87.1787 223.995 87.5248 225.146 87.5248C226.132 87.5248 227.105 87.0201 227.105 86.1692C227.105 85.5923 226.817 85.0154 223.324 83.3713C220.571 82.0589 219.091 80.5734 219.091 77.6025C219.091 74.6316 221.845 72.0356 226.173 72.0356C227.749 72.0356 229.667 72.5116 231.05 73.449C232.009 74.0547 232.721 74.8623 232.721 75.8719H232.694Z" fill="white"/>
<path d="M234.132 74.8333C234.132 73.5786 234.804 73.0162 235.639 72.9729L237.05 72.9008C237.215 71.6461 237.338 70.4779 237.406 69.9587C237.598 68.3002 238.749 67.7954 240.105 67.7954C241.612 67.7954 242.804 68.3002 242.639 69.9587C242.639 70.3914 242.516 71.4442 242.352 72.5979L245.584 72.396C246.927 72.3239 247.351 73.3334 247.351 74.2853C247.351 75.439 246.941 76.3476 245.845 76.4053L241.872 76.6361C241.584 78.958 241.297 81.5684 241.324 83.1548C241.352 85.246 241.927 86.5007 242.708 86.5007C243.667 86.5007 243.954 85.7652 244.119 85.4912C244.571 84.7845 245.146 84.4095 245.694 84.4095C247.078 84.4095 247.845 85.419 247.845 86.6305C247.845 87.6112 247.434 88.5198 246.749 89.2986C245.598 90.6542 243.735 91.5628 241.776 91.5628C237.16 91.5628 236.009 86.7314 236.009 83.0538C236.009 81.0636 236.228 78.9724 236.516 76.9389L235.653 77.011C234.653 77.0832 234.146 76.0015 234.146 74.8189L234.132 74.8333Z" fill="white"/>
<path d="M253.174 72.5694C255.037 72.5694 256.598 73.6799 256.187 75.5691C255.9 76.8238 255.543 79.3188 255.543 81.1649C255.543 84.5108 256.311 86.4 257.557 86.4C258.995 86.4 260.447 84.1358 260.886 80.761C261.146 78.0209 261.078 76.3768 261.078 75.223C261.078 73.2039 262.269 72.5549 263.872 72.5549C265.927 72.5549 266.53 73.2616 266.53 75.7566C266.53 77.5449 266.406 79.4631 266.146 80.8908C265.982 84.4386 265.954 85.5491 265.954 86.7894C265.954 88.1018 266.023 88.8085 266.078 89.6594C266.201 90.7699 265.311 91.8227 263.708 91.8227C261.941 91.8227 261.078 90.741 261.078 88.9816C261.078 88.4768 261.078 88.1739 261.105 87.5249C259.598 90.193 257.995 91.4044 256.037 91.4044C252.516 91.4044 250.078 87.8566 250.078 81.3523C250.078 79.3333 250.365 76.6941 250.845 74.3C251.132 72.9876 252.091 72.5405 253.146 72.5405L253.174 72.5694Z" fill="white"/>
<path d="M284.27 62.9209C286.187 62.9209 287.215 63.4257 287.119 65.0842C286.612 72.9153 286.283 81.5252 285.968 89.5871C285.9 91.0005 284.626 91.5052 283.174 91.5052C281.722 91.5052 280.872 90.7985 280.872 89.9188C280.872 89.2842 280.996 88.7074 281.037 87.7988C279.79 90.3659 277.804 91.4475 275.653 91.4475C271.133 91.4475 269.502 86.7892 269.502 83.1838C269.502 77.8476 272.776 72.425 277.708 72.425C278.927 72.425 280.078 72.7567 281.297 73.4778C281.461 70.4059 281.653 67.3629 281.845 64.94C281.913 63.4545 282.872 62.9497 284.283 62.9497L284.27 62.9209ZM276.954 86.8469C278.818 86.8469 280.352 83.4722 280.516 81.2079C280.544 80.9772 280.612 80.7753 280.831 80.6022L280.996 77.6313C280.16 76.9246 279.516 76.7227 278.653 76.7227C276.831 76.7227 274.941 78.8139 274.941 82.9674C274.941 84.9577 275.516 86.8469 276.954 86.8469Z" fill="white"/>
<path d="M292.927 72.5261C293.667 72.5261 295.68 73.0597 295.68 74.5451C295.68 75.8287 294.886 77.5161 294.886 81.5975C294.886 85.1453 295.338 86.5875 296.612 86.5875C297.708 86.5875 298.954 85.2318 299.694 83.6887V82.1743C299.694 79.0304 299.886 75.7277 300.557 73.9394C300.913 72.9587 301.584 72.3818 302.667 72.3818C305.036 72.3818 305.324 73.3914 305.324 74.9489C305.324 77.718 305.064 80.9485 304.297 83.7175C304.324 85.1308 304.489 86.6596 304.489 88.145C304.489 94.5195 303.078 100.836 296.735 100.836C293.338 100.836 290.735 99.1778 289.653 97.1876C289.393 96.6828 289.365 96.3079 289.365 96.0771C289.365 94.7647 290.941 93.5821 291.858 93.5821C292.434 93.5821 292.858 93.9138 293.269 94.534C294.16 95.8464 295.256 96.3944 296.475 96.3944C298.776 96.3944 299.393 94.3321 299.708 88.6642C298.68 90.3516 297.53 91.5342 295.639 91.5342C291.091 91.5342 289.776 87.2076 289.776 81.785C289.776 79.1457 290.228 75.9441 290.571 74.098C290.831 72.8433 291.365 72.5405 292.913 72.5405L292.927 72.5261Z" fill="white"/>
<path d="M130.469 104.852L131.88 99.8906H132.563L132.168 101.819L130.649 107H129.971L130.469 104.852ZM129.009 99.8906L130.132 104.754L130.469 107H129.795L128.071 99.8906H129.009ZM134.39 104.749L135.488 99.8906H136.431L134.712 107H134.038L134.39 104.749ZM132.666 99.8906L134.038 104.852L134.536 107H133.857L132.393 101.819L131.992 99.8906H132.666ZM138.492 99.5V107H137.589V99.5H138.492ZM138.277 104.158L137.901 104.144C137.905 103.782 137.958 103.449 138.062 103.143C138.167 102.833 138.313 102.565 138.502 102.337C138.691 102.109 138.915 101.933 139.176 101.81C139.439 101.683 139.731 101.619 140.05 101.619C140.31 101.619 140.545 101.655 140.753 101.727C140.961 101.795 141.139 101.906 141.285 102.059C141.435 102.212 141.549 102.41 141.627 102.654C141.705 102.895 141.744 103.19 141.744 103.538V107H140.836V103.528C140.836 103.252 140.795 103.03 140.714 102.864C140.632 102.695 140.514 102.573 140.357 102.498C140.201 102.42 140.009 102.381 139.781 102.381C139.557 102.381 139.352 102.428 139.166 102.522C138.984 102.617 138.826 102.747 138.692 102.913C138.562 103.079 138.46 103.27 138.385 103.484C138.313 103.696 138.277 103.921 138.277 104.158ZM145.539 107.098C145.171 107.098 144.838 107.036 144.538 106.912C144.242 106.785 143.986 106.608 143.771 106.38C143.56 106.152 143.397 105.882 143.283 105.569C143.169 105.257 143.112 104.915 143.112 104.544V104.339C143.112 103.909 143.176 103.527 143.303 103.191C143.43 102.853 143.602 102.566 143.82 102.332C144.038 102.098 144.286 101.92 144.562 101.8C144.839 101.679 145.126 101.619 145.422 101.619C145.799 101.619 146.125 101.684 146.398 101.814C146.675 101.945 146.901 102.127 147.077 102.361C147.253 102.592 147.383 102.866 147.468 103.182C147.552 103.494 147.595 103.836 147.595 104.207V104.612H143.649V103.875H146.691V103.807C146.678 103.572 146.63 103.344 146.545 103.123C146.464 102.902 146.333 102.719 146.154 102.576C145.975 102.433 145.731 102.361 145.422 102.361C145.217 102.361 145.028 102.405 144.855 102.493C144.683 102.578 144.535 102.705 144.411 102.874C144.287 103.043 144.191 103.25 144.123 103.494C144.055 103.738 144.021 104.02 144.021 104.339V104.544C144.021 104.795 144.055 105.031 144.123 105.252C144.195 105.47 144.297 105.662 144.431 105.828C144.567 105.994 144.732 106.124 144.924 106.219C145.119 106.313 145.34 106.36 145.588 106.36C145.907 106.36 146.177 106.295 146.398 106.165C146.62 106.035 146.813 105.861 146.979 105.643L147.526 106.077C147.412 106.25 147.268 106.414 147.092 106.57C146.916 106.727 146.7 106.854 146.442 106.951C146.188 107.049 145.887 107.098 145.539 107.098ZM149.803 102.547V107H148.899V101.717H149.778L149.803 102.547ZM151.453 101.688L151.448 102.527C151.373 102.511 151.302 102.501 151.233 102.498C151.168 102.492 151.093 102.488 151.009 102.488C150.8 102.488 150.617 102.521 150.457 102.586C150.298 102.651 150.162 102.742 150.052 102.859C149.941 102.977 149.853 103.117 149.788 103.279C149.726 103.439 149.686 103.615 149.666 103.807L149.412 103.953C149.412 103.634 149.443 103.335 149.505 103.055C149.57 102.775 149.669 102.527 149.803 102.312C149.936 102.094 150.105 101.925 150.311 101.805C150.519 101.681 150.766 101.619 151.053 101.619C151.118 101.619 151.193 101.627 151.277 101.644C151.362 101.657 151.421 101.671 151.453 101.688ZM154.633 107.098C154.265 107.098 153.931 107.036 153.632 106.912C153.336 106.785 153.08 106.608 152.865 106.38C152.654 106.152 152.491 105.882 152.377 105.569C152.263 105.257 152.206 104.915 152.206 104.544V104.339C152.206 103.909 152.27 103.527 152.396 103.191C152.523 102.853 152.696 102.566 152.914 102.332C153.132 102.098 153.38 101.92 153.656 101.8C153.933 101.679 154.219 101.619 154.516 101.619C154.893 101.619 155.219 101.684 155.492 101.814C155.769 101.945 155.995 102.127 156.171 102.361C156.347 102.592 156.477 102.866 156.562 103.182C156.646 103.494 156.688 103.836 156.688 104.207V104.612H152.743V103.875H155.785V103.807C155.772 103.572 155.723 103.344 155.639 103.123C155.557 102.902 155.427 102.719 155.248 102.576C155.069 102.433 154.825 102.361 154.516 102.361C154.311 102.361 154.122 102.405 153.949 102.493C153.777 102.578 153.629 102.705 153.505 102.874C153.381 103.043 153.285 103.25 153.217 103.494C153.148 103.738 153.114 104.02 153.114 104.339V104.544C153.114 104.795 153.148 105.031 153.217 105.252C153.288 105.47 153.391 105.662 153.524 105.828C153.661 105.994 153.826 106.124 154.018 106.219C154.213 106.313 154.434 106.36 154.682 106.36C155.001 106.36 155.271 106.295 155.492 106.165C155.714 106.035 155.907 105.861 156.073 105.643L156.62 106.077C156.506 106.25 156.361 106.414 156.186 106.57C156.01 106.727 155.793 106.854 155.536 106.951C155.282 107.049 154.981 107.098 154.633 107.098ZM164.649 105.203C164.649 105.037 164.623 104.891 164.571 104.764C164.522 104.633 164.435 104.516 164.308 104.412C164.184 104.308 164.011 104.209 163.79 104.114C163.572 104.02 163.295 103.924 162.96 103.826C162.608 103.722 162.291 103.606 162.008 103.479C161.725 103.349 161.482 103.201 161.28 103.035C161.078 102.869 160.924 102.679 160.816 102.464C160.709 102.249 160.655 102.003 160.655 101.727C160.655 101.45 160.712 101.194 160.826 100.96C160.94 100.726 161.103 100.522 161.314 100.35C161.529 100.174 161.785 100.037 162.081 99.9395C162.377 99.8418 162.708 99.793 163.072 99.793C163.606 99.793 164.059 99.8955 164.43 100.101C164.804 100.302 165.089 100.568 165.284 100.896C165.479 101.222 165.577 101.57 165.577 101.941H164.64C164.64 101.674 164.583 101.438 164.469 101.233C164.355 101.025 164.182 100.862 163.951 100.745C163.72 100.625 163.427 100.564 163.072 100.564C162.737 100.564 162.46 100.615 162.242 100.716C162.024 100.817 161.861 100.953 161.754 101.126C161.65 101.299 161.598 101.495 161.598 101.717C161.598 101.867 161.629 102.003 161.69 102.127C161.756 102.247 161.855 102.36 161.988 102.464C162.125 102.568 162.298 102.664 162.506 102.752C162.717 102.84 162.97 102.924 163.263 103.006C163.666 103.12 164.015 103.247 164.308 103.387C164.601 103.527 164.841 103.685 165.03 103.86C165.222 104.033 165.364 104.23 165.455 104.451C165.549 104.669 165.597 104.917 165.597 105.193C165.597 105.483 165.538 105.745 165.421 105.979C165.304 106.214 165.136 106.414 164.918 106.58C164.7 106.746 164.438 106.875 164.132 106.966C163.829 107.054 163.491 107.098 163.116 107.098C162.787 107.098 162.464 107.052 162.145 106.961C161.829 106.87 161.541 106.733 161.28 106.551C161.023 106.368 160.816 106.144 160.66 105.877C160.507 105.607 160.431 105.294 160.431 104.939H161.368C161.368 105.184 161.415 105.394 161.51 105.569C161.604 105.742 161.733 105.885 161.896 105.999C162.062 106.113 162.249 106.198 162.457 106.253C162.669 106.305 162.888 106.331 163.116 106.331C163.445 106.331 163.723 106.285 163.951 106.194C164.179 106.103 164.352 105.973 164.469 105.804C164.589 105.634 164.649 105.434 164.649 105.203ZM169.123 101.717V102.41H166.267V101.717H169.123ZM167.233 100.433H168.137V105.691C168.137 105.87 168.164 106.006 168.22 106.097C168.275 106.188 168.347 106.248 168.435 106.277C168.522 106.307 168.617 106.321 168.718 106.321C168.793 106.321 168.871 106.315 168.952 106.302C169.037 106.285 169.1 106.272 169.143 106.263L169.147 107C169.076 107.023 168.981 107.044 168.864 107.063C168.75 107.086 168.612 107.098 168.449 107.098C168.228 107.098 168.024 107.054 167.839 106.966C167.653 106.878 167.505 106.731 167.395 106.526C167.287 106.318 167.233 106.038 167.233 105.687V100.433ZM173.665 105.779V101.717H174.573V107H173.709L173.665 105.779ZM173.836 104.666L174.212 104.656C174.212 105.008 174.174 105.333 174.1 105.633C174.028 105.929 173.911 106.186 173.748 106.404C173.585 106.622 173.372 106.793 173.108 106.917C172.845 107.037 172.524 107.098 172.146 107.098C171.889 107.098 171.653 107.06 171.438 106.985C171.227 106.91 171.045 106.795 170.892 106.639C170.739 106.482 170.62 106.279 170.535 106.028C170.454 105.778 170.413 105.477 170.413 105.125V101.717H171.316V105.135C171.316 105.372 171.342 105.569 171.395 105.726C171.45 105.879 171.523 106.001 171.614 106.092C171.709 106.18 171.813 106.242 171.927 106.277C172.044 106.313 172.164 106.331 172.288 106.331C172.672 106.331 172.977 106.258 173.201 106.111C173.426 105.962 173.587 105.761 173.685 105.511C173.785 105.257 173.836 104.975 173.836 104.666ZM179.53 105.975V99.5H180.438V107H179.608L179.53 105.975ZM175.976 104.417V104.314C175.976 103.911 176.024 103.545 176.122 103.216C176.223 102.884 176.365 102.599 176.547 102.361C176.732 102.124 176.952 101.941 177.206 101.814C177.463 101.684 177.75 101.619 178.065 101.619C178.397 101.619 178.687 101.678 178.935 101.795C179.185 101.909 179.397 102.076 179.569 102.298C179.745 102.516 179.883 102.78 179.984 103.089C180.085 103.398 180.155 103.748 180.194 104.139V104.588C180.159 104.975 180.089 105.324 179.984 105.633C179.883 105.942 179.745 106.206 179.569 106.424C179.397 106.642 179.185 106.81 178.935 106.927C178.684 107.041 178.391 107.098 178.056 107.098C177.746 107.098 177.463 107.031 177.206 106.897C176.952 106.764 176.732 106.577 176.547 106.336C176.365 106.095 176.223 105.812 176.122 105.486C176.024 105.158 175.976 104.801 175.976 104.417ZM176.884 104.314V104.417C176.884 104.681 176.91 104.928 176.962 105.159C177.017 105.39 177.102 105.594 177.216 105.77C177.33 105.945 177.475 106.084 177.65 106.185C177.826 106.282 178.036 106.331 178.28 106.331C178.58 106.331 178.826 106.268 179.018 106.141C179.213 106.014 179.369 105.846 179.486 105.638C179.604 105.429 179.695 105.203 179.76 104.959V103.782C179.721 103.603 179.664 103.431 179.589 103.265C179.517 103.095 179.423 102.946 179.306 102.815C179.192 102.682 179.05 102.576 178.881 102.498C178.715 102.42 178.518 102.381 178.29 102.381C178.043 102.381 177.829 102.433 177.65 102.537C177.475 102.638 177.33 102.778 177.216 102.957C177.102 103.133 177.017 103.338 176.962 103.572C176.91 103.803 176.884 104.051 176.884 104.314ZM184.287 107.098C183.919 107.098 183.586 107.036 183.286 106.912C182.99 106.785 182.734 106.608 182.52 106.38C182.308 106.152 182.145 105.882 182.031 105.569C181.917 105.257 181.86 104.915 181.86 104.544V104.339C181.86 103.909 181.924 103.527 182.051 103.191C182.178 102.853 182.35 102.566 182.568 102.332C182.786 102.098 183.034 101.92 183.311 101.8C183.587 101.679 183.874 101.619 184.17 101.619C184.548 101.619 184.873 101.684 185.146 101.814C185.423 101.945 185.649 102.127 185.825 102.361C186.001 102.592 186.131 102.866 186.216 103.182C186.3 103.494 186.343 103.836 186.343 104.207V104.612H182.397V103.875H185.439V103.807C185.426 103.572 185.378 103.344 185.293 103.123C185.212 102.902 185.081 102.719 184.902 102.576C184.723 102.433 184.479 102.361 184.17 102.361C183.965 102.361 183.776 102.405 183.604 102.493C183.431 102.578 183.283 102.705 183.159 102.874C183.035 103.043 182.939 103.25 182.871 103.494C182.803 103.738 182.769 104.02 182.769 104.339V104.544C182.769 104.795 182.803 105.031 182.871 105.252C182.943 105.47 183.045 105.662 183.179 105.828C183.315 105.994 183.48 106.124 183.672 106.219C183.867 106.313 184.089 106.36 184.336 106.36C184.655 106.36 184.925 106.295 185.146 106.165C185.368 106.035 185.562 105.861 185.728 105.643L186.274 106.077C186.16 106.25 186.016 106.414 185.84 106.57C185.664 106.727 185.448 106.854 185.19 106.951C184.937 107.049 184.635 107.098 184.287 107.098ZM188.551 102.845V107H187.647V101.717H188.502L188.551 102.845ZM188.336 104.158L187.96 104.144C187.963 103.782 188.017 103.449 188.121 103.143C188.225 102.833 188.372 102.565 188.561 102.337C188.749 102.109 188.974 101.933 189.234 101.81C189.498 101.683 189.789 101.619 190.108 101.619C190.369 101.619 190.603 101.655 190.812 101.727C191.02 101.795 191.197 101.906 191.344 102.059C191.493 102.212 191.607 102.41 191.686 102.654C191.764 102.895 191.803 103.19 191.803 103.538V107H190.895V103.528C190.895 103.252 190.854 103.03 190.772 102.864C190.691 102.695 190.572 102.573 190.416 102.498C190.26 102.42 190.068 102.381 189.84 102.381C189.615 102.381 189.41 102.428 189.225 102.522C189.042 102.617 188.884 102.747 188.751 102.913C188.621 103.079 188.518 103.27 188.443 103.484C188.372 103.696 188.336 103.921 188.336 104.158ZM195.637 101.717V102.41H192.78V101.717H195.637ZM193.747 100.433H194.65V105.691C194.65 105.87 194.678 106.006 194.733 106.097C194.789 106.188 194.86 106.248 194.948 106.277C195.036 106.307 195.131 106.321 195.231 106.321C195.306 106.321 195.384 106.315 195.466 106.302C195.55 106.285 195.614 106.272 195.656 106.263L195.661 107C195.59 107.023 195.495 107.044 195.378 107.063C195.264 107.086 195.126 107.098 194.963 107.098C194.742 107.098 194.538 107.054 194.353 106.966C194.167 106.878 194.019 106.731 193.908 106.526C193.801 106.318 193.747 106.038 193.747 105.687V100.433ZM200.022 105.599C200.022 105.468 199.993 105.348 199.935 105.237C199.879 105.123 199.764 105.021 199.588 104.93C199.415 104.835 199.155 104.754 198.807 104.686C198.514 104.624 198.248 104.55 198.011 104.466C197.776 104.381 197.576 104.279 197.41 104.158C197.247 104.038 197.122 103.896 197.034 103.733C196.946 103.571 196.902 103.38 196.902 103.162C196.902 102.954 196.948 102.757 197.039 102.571C197.133 102.386 197.265 102.221 197.435 102.078C197.607 101.935 197.814 101.823 198.055 101.741C198.296 101.66 198.564 101.619 198.86 101.619C199.284 101.619 199.645 101.694 199.944 101.844C200.244 101.993 200.473 102.194 200.633 102.444C200.792 102.692 200.872 102.967 200.872 103.27H199.969C199.969 103.123 199.925 102.981 199.837 102.845C199.752 102.705 199.627 102.589 199.461 102.498C199.298 102.407 199.098 102.361 198.86 102.361C198.61 102.361 198.406 102.4 198.25 102.479C198.097 102.553 197.985 102.649 197.913 102.767C197.845 102.884 197.811 103.007 197.811 103.138C197.811 103.235 197.827 103.323 197.859 103.401C197.895 103.476 197.957 103.546 198.045 103.611C198.133 103.673 198.257 103.732 198.416 103.787C198.576 103.842 198.779 103.898 199.026 103.953C199.459 104.051 199.816 104.168 200.096 104.305C200.376 104.441 200.584 104.609 200.721 104.808C200.857 105.006 200.926 105.247 200.926 105.53C200.926 105.761 200.877 105.973 200.779 106.165C200.685 106.357 200.547 106.523 200.364 106.663C200.185 106.8 199.97 106.907 199.72 106.985C199.472 107.06 199.194 107.098 198.885 107.098C198.419 107.098 198.025 107.015 197.703 106.849C197.381 106.683 197.137 106.468 196.971 106.204C196.805 105.94 196.722 105.662 196.722 105.369H197.63C197.643 105.617 197.715 105.813 197.845 105.96C197.975 106.103 198.134 106.206 198.323 106.268C198.512 106.326 198.699 106.355 198.885 106.355C199.132 106.355 199.339 106.323 199.505 106.258C199.674 106.193 199.803 106.103 199.891 105.989C199.979 105.875 200.022 105.745 200.022 105.599ZM205.527 99.8906H206.44L208.77 105.687L211.094 99.8906H212.012L209.121 107H208.408L205.527 99.8906ZM205.229 99.8906H206.035L206.167 104.227V107H205.229V99.8906ZM211.499 99.8906H212.305V107H211.367V104.227L211.499 99.8906ZM216.266 107.098C215.898 107.098 215.564 107.036 215.265 106.912C214.968 106.785 214.713 106.608 214.498 106.38C214.286 106.152 214.124 105.882 214.01 105.569C213.896 105.257 213.839 104.915 213.839 104.544V104.339C213.839 103.909 213.902 103.527 214.029 103.191C214.156 102.853 214.329 102.566 214.547 102.332C214.765 102.098 215.012 101.92 215.289 101.8C215.566 101.679 215.852 101.619 216.148 101.619C216.526 101.619 216.852 101.684 217.125 101.814C217.402 101.945 217.628 102.127 217.804 102.361C217.979 102.592 218.11 102.866 218.194 103.182C218.279 103.494 218.321 103.836 218.321 104.207V104.612H214.376V103.875H217.418V103.807C217.405 103.572 217.356 103.344 217.271 103.123C217.19 102.902 217.06 102.719 216.881 102.576C216.702 102.433 216.458 102.361 216.148 102.361C215.943 102.361 215.755 102.405 215.582 102.493C215.41 102.578 215.261 102.705 215.138 102.874C215.014 103.043 214.918 103.25 214.85 103.494C214.781 103.738 214.747 104.02 214.747 104.339V104.544C214.747 104.795 214.781 105.031 214.85 105.252C214.921 105.47 215.024 105.662 215.157 105.828C215.294 105.994 215.458 106.124 215.65 106.219C215.846 106.313 216.067 106.36 216.314 106.36C216.633 106.36 216.904 106.295 217.125 106.165C217.346 106.035 217.54 105.861 217.706 105.643L218.253 106.077C218.139 106.25 217.994 106.414 217.818 106.57C217.643 106.727 217.426 106.854 217.169 106.951C216.915 107.049 216.614 107.098 216.266 107.098ZM221.818 107.098C221.451 107.098 221.117 107.036 220.817 106.912C220.521 106.785 220.266 106.608 220.051 106.38C219.839 106.152 219.676 105.882 219.562 105.569C219.449 105.257 219.392 104.915 219.392 104.544V104.339C219.392 103.909 219.455 103.527 219.582 103.191C219.709 102.853 219.882 102.566 220.1 102.332C220.318 102.098 220.565 101.92 220.842 101.8C221.118 101.679 221.405 101.619 221.701 101.619C222.079 101.619 222.404 101.684 222.678 101.814C222.954 101.945 223.181 102.127 223.356 102.361C223.532 102.592 223.662 102.866 223.747 103.182C223.832 103.494 223.874 103.836 223.874 104.207V104.612H219.929V103.875H222.971V103.807C222.958 103.572 222.909 103.344 222.824 103.123C222.743 102.902 222.613 102.719 222.434 102.576C222.255 102.433 222.01 102.361 221.701 102.361C221.496 102.361 221.307 102.405 221.135 102.493C220.962 102.578 220.814 102.705 220.69 102.874C220.567 103.043 220.471 103.25 220.402 103.494C220.334 103.738 220.3 104.02 220.3 104.339V104.544C220.3 104.795 220.334 105.031 220.402 105.252C220.474 105.47 220.576 105.662 220.71 105.828C220.847 105.994 221.011 106.124 221.203 106.219C221.398 106.313 221.62 106.36 221.867 106.36C222.186 106.36 222.456 106.295 222.678 106.165C222.899 106.035 223.093 105.861 223.259 105.643L223.806 106.077C223.692 106.25 223.547 106.414 223.371 106.57C223.195 106.727 222.979 106.854 222.722 106.951C222.468 107.049 222.167 107.098 221.818 107.098ZM227.391 101.717V102.41H224.534V101.717H227.391ZM225.501 100.433H226.404V105.691C226.404 105.87 226.432 106.006 226.487 106.097C226.543 106.188 226.614 106.248 226.702 106.277C226.79 106.307 226.884 106.321 226.985 106.321C227.06 106.321 227.138 106.315 227.22 106.302C227.304 106.285 227.368 106.272 227.41 106.263L227.415 107C227.343 107.023 227.249 107.044 227.132 107.063C227.018 107.086 226.88 107.098 226.717 107.098C226.495 107.098 226.292 107.054 226.106 106.966C225.921 106.878 225.773 106.731 225.662 106.526C225.555 106.318 225.501 106.038 225.501 105.687V100.433ZM237.041 103.221V103.67C237.041 104.204 236.974 104.682 236.841 105.105C236.707 105.529 236.515 105.888 236.265 106.185C236.014 106.481 235.713 106.707 235.361 106.863C235.013 107.02 234.622 107.098 234.189 107.098C233.77 107.098 233.384 107.02 233.032 106.863C232.684 106.707 232.381 106.481 232.124 106.185C231.87 105.888 231.673 105.529 231.533 105.105C231.393 104.682 231.323 104.204 231.323 103.67V103.221C231.323 102.687 231.392 102.21 231.528 101.79C231.668 101.367 231.865 101.007 232.119 100.711C232.373 100.411 232.674 100.184 233.022 100.027C233.374 99.8711 233.76 99.793 234.18 99.793C234.613 99.793 235.003 99.8711 235.352 100.027C235.703 100.184 236.004 100.411 236.255 100.711C236.509 101.007 236.702 101.367 236.836 101.79C236.973 102.21 237.041 102.687 237.041 103.221ZM236.108 103.67V103.211C236.108 102.788 236.064 102.413 235.977 102.088C235.892 101.762 235.767 101.489 235.601 101.268C235.435 101.046 235.231 100.879 234.99 100.765C234.753 100.651 234.482 100.594 234.18 100.594C233.887 100.594 233.621 100.651 233.384 100.765C233.149 100.879 232.948 101.046 232.778 101.268C232.612 101.489 232.484 101.762 232.393 102.088C232.301 102.413 232.256 102.788 232.256 103.211V103.67C232.256 104.096 232.301 104.474 232.393 104.803C232.484 105.128 232.614 105.403 232.783 105.628C232.956 105.849 233.159 106.017 233.394 106.131C233.631 106.245 233.896 106.302 234.189 106.302C234.495 106.302 234.767 106.245 235.005 106.131C235.243 106.017 235.443 105.849 235.605 105.628C235.771 105.403 235.897 105.128 235.981 104.803C236.066 104.474 236.108 104.096 236.108 103.67ZM239.469 102.732V109.031H238.561V101.717H239.391L239.469 102.732ZM243.028 104.314V104.417C243.028 104.801 242.983 105.158 242.892 105.486C242.8 105.812 242.667 106.095 242.491 106.336C242.319 106.577 242.105 106.764 241.852 106.897C241.598 107.031 241.306 107.098 240.978 107.098C240.642 107.098 240.346 107.042 240.089 106.932C239.832 106.821 239.614 106.66 239.435 106.448C239.256 106.237 239.112 105.983 239.005 105.687C238.901 105.39 238.829 105.057 238.79 104.686V104.139C238.829 103.748 238.902 103.398 239.01 103.089C239.117 102.78 239.259 102.516 239.435 102.298C239.614 102.076 239.83 101.909 240.084 101.795C240.338 101.678 240.631 101.619 240.963 101.619C241.295 101.619 241.59 101.684 241.847 101.814C242.104 101.941 242.32 102.124 242.496 102.361C242.672 102.599 242.804 102.884 242.892 103.216C242.983 103.545 243.028 103.911 243.028 104.314ZM242.12 104.417V104.314C242.12 104.051 242.092 103.803 242.037 103.572C241.982 103.338 241.896 103.133 241.778 102.957C241.664 102.778 241.518 102.638 241.339 102.537C241.16 102.433 240.947 102.381 240.699 102.381C240.471 102.381 240.273 102.42 240.104 102.498C239.938 102.576 239.796 102.682 239.679 102.815C239.562 102.946 239.465 103.095 239.391 103.265C239.319 103.431 239.265 103.603 239.229 103.782V105.047C239.295 105.275 239.386 105.49 239.503 105.691C239.62 105.89 239.776 106.051 239.972 106.175C240.167 106.295 240.413 106.355 240.709 106.355C240.953 106.355 241.163 106.305 241.339 106.204C241.518 106.1 241.664 105.958 241.778 105.779C241.896 105.6 241.982 105.395 242.037 105.164C242.092 104.93 242.12 104.681 242.12 104.417ZM245.334 102.732V109.031H244.426V101.717H245.256L245.334 102.732ZM248.894 104.314V104.417C248.894 104.801 248.848 105.158 248.757 105.486C248.666 105.812 248.532 106.095 248.356 106.336C248.184 106.577 247.971 106.764 247.717 106.897C247.463 107.031 247.172 107.098 246.843 107.098C246.507 107.098 246.211 107.042 245.954 106.932C245.697 106.821 245.479 106.66 245.3 106.448C245.121 106.237 244.978 105.983 244.87 105.687C244.766 105.39 244.694 105.057 244.655 104.686V104.139C244.694 103.748 244.768 103.398 244.875 103.089C244.982 102.78 245.124 102.516 245.3 102.298C245.479 102.076 245.695 101.909 245.949 101.795C246.203 101.678 246.496 101.619 246.828 101.619C247.16 101.619 247.455 101.684 247.712 101.814C247.969 101.941 248.186 102.124 248.361 102.361C248.537 102.599 248.669 102.884 248.757 103.216C248.848 103.545 248.894 103.911 248.894 104.314ZM247.985 104.417V104.314C247.985 104.051 247.958 103.803 247.902 103.572C247.847 103.338 247.761 103.133 247.644 102.957C247.53 102.778 247.383 102.638 247.204 102.537C247.025 102.433 246.812 102.381 246.564 102.381C246.337 102.381 246.138 102.42 245.969 102.498C245.803 102.576 245.661 102.682 245.544 102.815C245.427 102.946 245.331 103.095 245.256 103.265C245.184 103.431 245.131 103.603 245.095 103.782V105.047C245.16 105.275 245.251 105.49 245.368 105.691C245.485 105.89 245.642 106.051 245.837 106.175C246.032 106.295 246.278 106.355 246.574 106.355C246.818 106.355 247.028 106.305 247.204 106.204C247.383 106.1 247.53 105.958 247.644 105.779C247.761 105.6 247.847 105.395 247.902 105.164C247.958 104.93 247.985 104.681 247.985 104.417ZM250.057 104.417V104.305C250.057 103.924 250.112 103.571 250.223 103.245C250.333 102.916 250.493 102.632 250.701 102.391C250.91 102.146 251.162 101.958 251.458 101.824C251.754 101.688 252.086 101.619 252.454 101.619C252.825 101.619 253.159 101.688 253.455 101.824C253.755 101.958 254.008 102.146 254.217 102.391C254.428 102.632 254.59 102.916 254.7 103.245C254.811 103.571 254.866 103.924 254.866 104.305V104.417C254.866 104.798 254.811 105.151 254.7 105.477C254.59 105.802 254.428 106.087 254.217 106.331C254.008 106.572 253.756 106.761 253.46 106.897C253.167 107.031 252.835 107.098 252.464 107.098C252.093 107.098 251.759 107.031 251.463 106.897C251.167 106.761 250.913 106.572 250.701 106.331C250.493 106.087 250.333 105.802 250.223 105.477C250.112 105.151 250.057 104.798 250.057 104.417ZM250.96 104.305V104.417C250.96 104.681 250.991 104.93 251.053 105.164C251.115 105.395 251.207 105.6 251.331 105.779C251.458 105.958 251.616 106.1 251.805 106.204C251.993 106.305 252.213 106.355 252.464 106.355C252.711 106.355 252.928 106.305 253.113 106.204C253.302 106.1 253.458 105.958 253.582 105.779C253.706 105.6 253.799 105.395 253.86 105.164C253.925 104.93 253.958 104.681 253.958 104.417V104.305C253.958 104.044 253.925 103.799 253.86 103.567C253.799 103.333 253.704 103.126 253.577 102.947C253.453 102.765 253.297 102.622 253.108 102.518C252.923 102.413 252.705 102.361 252.454 102.361C252.207 102.361 251.989 102.413 251.8 102.518C251.614 102.622 251.458 102.765 251.331 102.947C251.207 103.126 251.115 103.333 251.053 103.567C250.991 103.799 250.96 104.044 250.96 104.305ZM257.152 102.547V107H256.249V101.717H257.128L257.152 102.547ZM258.803 101.688L258.798 102.527C258.723 102.511 258.651 102.501 258.583 102.498C258.518 102.492 258.443 102.488 258.358 102.488C258.15 102.488 257.966 102.521 257.807 102.586C257.647 102.651 257.512 102.742 257.401 102.859C257.291 102.977 257.203 103.117 257.138 103.279C257.076 103.439 257.035 103.615 257.016 103.807L256.762 103.953C256.762 103.634 256.793 103.335 256.854 103.055C256.92 102.775 257.019 102.527 257.152 102.312C257.286 102.094 257.455 101.925 257.66 101.805C257.868 101.681 258.116 101.619 258.402 101.619C258.467 101.619 258.542 101.627 258.627 101.644C258.712 101.657 258.77 101.671 258.803 101.688ZM262.344 101.717V102.41H259.487V101.717H262.344ZM260.454 100.433H261.357V105.691C261.357 105.87 261.385 106.006 261.44 106.097C261.496 106.188 261.567 106.248 261.655 106.277C261.743 106.307 261.838 106.321 261.938 106.321C262.013 106.321 262.091 106.315 262.173 106.302C262.257 106.285 262.321 106.272 262.363 106.263L262.368 107C262.297 107.023 262.202 107.044 262.085 107.063C261.971 107.086 261.833 107.098 261.67 107.098C261.449 107.098 261.245 107.054 261.06 106.966C260.874 106.878 260.726 106.731 260.615 106.526C260.508 106.318 260.454 106.038 260.454 105.687V100.433ZM266.886 105.779V101.717H267.794V107H266.93L266.886 105.779ZM267.057 104.666L267.433 104.656C267.433 105.008 267.395 105.333 267.32 105.633C267.249 105.929 267.132 106.186 266.969 106.404C266.806 106.622 266.593 106.793 266.329 106.917C266.065 107.037 265.745 107.098 265.367 107.098C265.11 107.098 264.874 107.06 264.659 106.985C264.448 106.91 264.265 106.795 264.112 106.639C263.959 106.482 263.84 106.279 263.756 106.028C263.674 105.778 263.634 105.477 263.634 105.125V101.717H264.537V105.135C264.537 105.372 264.563 105.569 264.615 105.726C264.671 105.879 264.744 106.001 264.835 106.092C264.929 106.18 265.034 106.242 265.147 106.277C265.265 106.313 265.385 106.331 265.509 106.331C265.893 106.331 266.197 106.258 266.422 106.111C266.646 105.962 266.808 105.761 266.905 105.511C267.006 105.257 267.057 104.975 267.057 104.666ZM270.324 102.845V107H269.421V101.717H270.275L270.324 102.845ZM270.109 104.158L269.733 104.144C269.737 103.782 269.79 103.449 269.895 103.143C269.999 102.833 270.145 102.565 270.334 102.337C270.523 102.109 270.747 101.933 271.008 101.81C271.271 101.683 271.563 101.619 271.882 101.619C272.142 101.619 272.377 101.655 272.585 101.727C272.793 101.795 272.971 101.906 273.117 102.059C273.267 102.212 273.381 102.41 273.459 102.654C273.537 102.895 273.576 103.19 273.576 103.538V107H272.668V103.528C272.668 103.252 272.627 103.03 272.546 102.864C272.465 102.695 272.346 102.573 272.189 102.498C272.033 102.42 271.841 102.381 271.613 102.381C271.389 102.381 271.184 102.428 270.998 102.522C270.816 102.617 270.658 102.747 270.524 102.913C270.394 103.079 270.292 103.27 270.217 103.484C270.145 103.696 270.109 103.921 270.109 104.158ZM276.18 101.717V107H275.271V101.717H276.18ZM275.203 100.315C275.203 100.169 275.247 100.045 275.335 99.9443C275.426 99.8434 275.56 99.793 275.735 99.793C275.908 99.793 276.04 99.8434 276.131 99.9443C276.225 100.045 276.272 100.169 276.272 100.315C276.272 100.455 276.225 100.576 276.131 100.677C276.04 100.774 275.908 100.823 275.735 100.823C275.56 100.823 275.426 100.774 275.335 100.677C275.247 100.576 275.203 100.455 275.203 100.315ZM280.092 101.717V102.41H277.235V101.717H280.092ZM278.202 100.433H279.105V105.691C279.105 105.87 279.133 106.006 279.188 106.097C279.244 106.188 279.315 106.248 279.403 106.277C279.491 106.307 279.586 106.321 279.687 106.321C279.761 106.321 279.84 106.315 279.921 106.302C280.006 106.285 280.069 106.272 280.111 106.263L280.116 107C280.045 107.023 279.95 107.044 279.833 107.063C279.719 107.086 279.581 107.098 279.418 107.098C279.197 107.098 278.993 107.054 278.808 106.966C278.622 106.878 278.474 106.731 278.363 106.526C278.256 106.318 278.202 106.038 278.202 105.687V100.433ZM282.383 101.717V107H281.475V101.717H282.383ZM281.406 100.315C281.406 100.169 281.45 100.045 281.538 99.9443C281.629 99.8434 281.763 99.793 281.938 99.793C282.111 99.793 282.243 99.8434 282.334 99.9443C282.428 100.045 282.476 100.169 282.476 100.315C282.476 100.455 282.428 100.576 282.334 100.677C282.243 100.774 282.111 100.823 281.938 100.823C281.763 100.823 281.629 100.774 281.538 100.677C281.45 100.576 281.406 100.455 281.406 100.315ZM286.275 107.098C285.908 107.098 285.574 107.036 285.274 106.912C284.978 106.785 284.723 106.608 284.508 106.38C284.296 106.152 284.133 105.882 284.02 105.569C283.906 105.257 283.849 104.915 283.849 104.544V104.339C283.849 103.909 283.912 103.527 284.039 103.191C284.166 102.853 284.339 102.566 284.557 102.332C284.775 102.098 285.022 101.92 285.299 101.8C285.576 101.679 285.862 101.619 286.158 101.619C286.536 101.619 286.861 101.684 287.135 101.814C287.411 101.945 287.638 102.127 287.813 102.361C287.989 102.592 288.119 102.866 288.204 103.182C288.289 103.494 288.331 103.836 288.331 104.207V104.612H284.386V103.875H287.428V103.807C287.415 103.572 287.366 103.344 287.281 103.123C287.2 102.902 287.07 102.719 286.891 102.576C286.712 102.433 286.467 102.361 286.158 102.361C285.953 102.361 285.764 102.405 285.592 102.493C285.419 102.578 285.271 102.705 285.147 102.874C285.024 103.043 284.928 103.25 284.859 103.494C284.791 103.738 284.757 104.02 284.757 104.339V104.544C284.757 104.795 284.791 105.031 284.859 105.252C284.931 105.47 285.034 105.662 285.167 105.828C285.304 105.994 285.468 106.124 285.66 106.219C285.855 106.313 286.077 106.36 286.324 106.36C286.643 106.36 286.913 106.295 287.135 106.165C287.356 106.035 287.55 105.861 287.716 105.643L288.263 106.077C288.149 106.25 288.004 106.414 287.828 106.57C287.652 106.727 287.436 106.854 287.179 106.951C286.925 107.049 286.624 107.098 286.275 107.098ZM292.712 105.599C292.712 105.468 292.683 105.348 292.624 105.237C292.569 105.123 292.453 105.021 292.277 104.93C292.105 104.835 291.844 104.754 291.496 104.686C291.203 104.624 290.938 104.55 290.7 104.466C290.466 104.381 290.266 104.279 290.1 104.158C289.937 104.038 289.812 103.896 289.724 103.733C289.636 103.571 289.592 103.38 289.592 103.162C289.592 102.954 289.637 102.757 289.729 102.571C289.823 102.386 289.955 102.221 290.124 102.078C290.297 101.935 290.503 101.823 290.744 101.741C290.985 101.66 291.254 101.619 291.55 101.619C291.973 101.619 292.334 101.694 292.634 101.844C292.933 101.993 293.163 102.194 293.322 102.444C293.482 102.692 293.562 102.967 293.562 103.27H292.658C292.658 103.123 292.614 102.981 292.526 102.845C292.442 102.705 292.316 102.589 292.15 102.498C291.988 102.407 291.787 102.361 291.55 102.361C291.299 102.361 291.096 102.4 290.939 102.479C290.786 102.553 290.674 102.649 290.603 102.767C290.534 102.884 290.5 103.007 290.5 103.138C290.5 103.235 290.516 103.323 290.549 103.401C290.585 103.476 290.646 103.546 290.734 103.611C290.822 103.673 290.946 103.732 291.105 103.787C291.265 103.842 291.468 103.898 291.716 103.953C292.149 104.051 292.505 104.168 292.785 104.305C293.065 104.441 293.273 104.609 293.41 104.808C293.547 105.006 293.615 105.247 293.615 105.53C293.615 105.761 293.566 105.973 293.469 106.165C293.374 106.357 293.236 106.523 293.054 106.663C292.875 106.8 292.66 106.907 292.409 106.985C292.162 107.06 291.883 107.098 291.574 107.098C291.109 107.098 290.715 107.015 290.393 106.849C290.07 106.683 289.826 106.468 289.66 106.204C289.494 105.94 289.411 105.662 289.411 105.369H290.319C290.332 105.617 290.404 105.813 290.534 105.96C290.664 106.103 290.824 106.206 291.013 106.268C291.201 106.326 291.389 106.355 291.574 106.355C291.822 106.355 292.028 106.323 292.194 106.258C292.364 106.193 292.492 106.103 292.58 105.989C292.668 105.875 292.712 105.745 292.712 105.599ZM295.066 106.521C295.066 106.368 295.114 106.24 295.208 106.136C295.306 106.028 295.446 105.975 295.628 105.975C295.81 105.975 295.949 106.028 296.043 106.136C296.141 106.24 296.189 106.368 296.189 106.521C296.189 106.671 296.141 106.798 296.043 106.902C295.949 107.007 295.81 107.059 295.628 107.059C295.446 107.059 295.306 107.007 295.208 106.902C295.114 106.798 295.066 106.671 295.066 106.521Z" fill="white"/>
</svg>
