<svg width="230" height="230" viewBox="0 0 230 230" fill="none" xmlns="http://www.w3.org/2000/svg">
<g id="noun-english-1054579 (1) 1">
<path id="Vector" d="M193.2 11.5H36.8C22.7702 11.5 11.5 22.0798 11.5 35.19V154.1C11.5 167.21 22.7702 177.79 36.8 177.79H53.3596V212.98C53.3596 215.05 54.7395 217.12 56.8096 218.04C57.7298 218.499 58.4193 218.499 59.3394 218.499C60.7193 218.499 62.099 218.04 63.249 217.349L115.459 177.789H193.201C207.231 177.789 218.501 167.21 218.501 154.099V35.1893C218.501 22.0789 207.231 11.4993 193.201 11.4993L193.2 11.5ZM206.77 153.87C206.77 160.77 200.79 166.29 193.43 166.29H113.16C111.78 166.29 110.4 166.75 109.25 167.44L65.3202 200.79V171.81C65.3202 168.82 62.5606 166.29 59.3404 166.29H36.8004C29.4408 166.29 23.46 160.77 23.46 153.87V35.6498C23.46 28.7498 29.4398 23.2296 36.8004 23.2296H193.66C201.02 23.2296 207.001 28.7498 207.001 35.6498V153.87L206.77 153.87Z" fill="#FF0000"/>
<path id="Vector_2" d="M71.3 98.21H103.96V86.71H71.3V72.4504H106.72V60.4908H57.5V127.651H108.33V115.46H71.3V98.21Z" fill="#FF0000"/>
<path id="Vector_3" d="M160.54 107.41L133.86 60.49H119.141V127.65H132.25V80.04L159.62 127.65H173.65V60.49H160.54L160.54 107.41Z" fill="#FF0000"/>
</g>
</svg>
