<svg width="242" height="55" viewBox="0 0 242 55" fill="none" xmlns="http://www.w3.org/2000/svg">
<g id="Group">
<g id="world">
<g id="Group_2">
<path id="Vector" d="M45.3715 39.1658C44.9797 39.4626 44.4798 39.665 43.8853 39.665C43.588 39.665 43.2908 39.665 42.9935 39.4626C42.6017 39.3682 42.3044 39.0714 42.1017 38.7746C39.7237 41.8371 36.3729 44.1037 32.414 45.183C34.5893 43.6989 36.3729 41.0411 37.5484 37.7897H41.5072V37.5873L41.3046 36.0088H38.1429C38.7374 33.8367 39.1292 31.4756 39.2238 28.8988H40.4128L40.2101 27.1179H39.3184C39.3184 25.9306 39.2238 24.7434 39.0211 23.6641C38.4266 23.8664 37.8321 23.9609 37.2376 24.1632C37.3322 25.1481 37.4403 26.133 37.5349 27.1179H31.3061L30.9142 28.8988H37.5349C37.5349 31.4622 37.0349 33.9311 36.4539 36.0088H28.9415V32.0558L28.0498 32.6494C27.7525 32.8518 27.4553 32.9462 27.158 33.0407V35.9953H19.6456C19.3484 34.916 19.0511 33.8232 18.8485 32.6359C18.6458 32.6359 18.4566 32.8383 18.2539 32.8383C17.8621 33.0407 17.5649 33.1351 17.173 33.3375C17.3757 34.2279 17.5649 35.1184 17.7675 35.9009H12.1332C11.6333 36.1977 11.1469 36.4945 10.647 36.7913C10.2551 37.0881 9.9579 37.2905 9.66064 37.5873C13.1196 44.1037 20.0375 48.6368 27.9417 48.6368C35.8459 48.6368 41.872 44.6838 45.5337 38.869L45.331 39.0714V39.1658H45.3715ZM13.2547 37.7897H18.4972C19.6862 41.0411 21.4562 43.7124 23.6315 45.183C19.2808 44.1037 15.6327 41.4324 13.2547 37.7897ZM27.185 44.8862C24.3206 44.387 21.9426 41.7292 20.3617 37.8841H27.185V44.8862ZM28.9686 37.7897H35.7919C34.211 41.6348 31.7384 44.3061 28.9686 44.7918V37.7897Z" fill="white"/>
<path id="Vector_2" d="M61.2746 9.47104C58.4101 7.59572 52.2894 8.87741 45.5607 11.5487L33.6976 0H29.7388C29.7388 0.0944406 39.2238 14.2066 39.2238 14.2066C35.265 15.9874 31.4142 17.9572 28.0633 19.8325L23.1181 16.1763L21.0374 16.3787L26.0771 22.7872L26.469 30.8821L28.1444 29.6948L29.3334 23.6776C33.0896 22.7872 37.3322 21.7078 41.4802 20.5206L43.6556 37.2905L46.7227 34.7271L47.9117 18.254C54.6269 15.7851 60.0585 12.7225 61.0584 9.3766L61.2611 9.47104H61.2746Z" fill="white"/>
<path id="Vector_3" d="M33.1165 9.17415L32.1302 7.69008C30.8466 7.39327 29.4684 7.29883 28.0768 7.29883C17.6999 7.29883 9.20121 14.8945 7.62036 24.8648C8.90395 23.8799 10.093 23.0839 11.282 22.3014C11.5792 21.5054 11.8765 20.7229 12.2683 20.0348H15.1328C16.1191 19.4412 17.2135 18.8476 18.2944 18.2539H13.2547C15.6327 14.5977 19.2808 11.9399 23.6315 10.8606C22.4425 11.6566 21.4561 12.8304 20.5644 14.112C20.659 14.112 20.8616 14.112 20.9562 14.0176L23.037 13.8152C24.226 12.4391 25.6987 11.5487 27.185 11.2518V16.1897L28.374 17.0802C28.5767 16.9857 28.7658 16.8778 28.9685 16.7834V11.2518C30.6439 11.5487 32.2248 12.628 33.6165 14.3144L35.8864 13.2351L33.1165 9.18764V9.17415Z" fill="white"/>
<path id="Vector_4" d="M23.9288 23.5836L20.7672 19.5361C18.5918 20.6155 16.2273 22.0051 13.6466 23.5836C10.7822 25.3645 7.82315 27.4287 5.14788 29.9921C3.76971 31.2737 2.48611 32.7578 1.48626 34.5252C0.986337 35.4156 0.499927 36.4005 0.202674 37.3854C0.202674 37.6822 0.108092 37.8846 0 38.1814V40.5559C0 41.6352 0.391833 42.728 0.986338 43.7129C1.58084 44.6978 2.36451 45.4938 3.16169 45.9795C4.83711 46.9644 6.41796 47.1667 7.80964 47.1667C10.5795 47.1667 12.6468 46.7755 14.133 46.4787C14.6329 46.4787 15.0248 46.2763 15.322 46.1819C11.0794 45.9795 8.40415 44.9002 6.91788 44.2121C6.52605 44.0097 6.12071 43.8209 5.83696 43.524C5.63429 43.4296 5.63429 43.3217 5.63429 43.3217L5.33704 43.0249C4.64795 42.2289 4.64795 41.5408 4.94521 40.5559C4.94521 40.4615 4.94521 40.3535 5.03979 40.2591L5.24246 39.6655V39.3687C5.24246 39.2742 5.24246 39.1663 5.44513 38.9774C5.6478 38.4782 6.03963 37.9925 6.43147 37.4933C7.22865 36.5085 8.30956 35.618 9.59316 34.7276C12.0658 33.0546 14.9302 31.665 17.592 30.4912C19.97 29.5064 22.2399 28.6159 24.3072 28.0223L24.0099 23.3812L23.9153 23.5836H23.9288Z" fill="white"/>
</g>
</g>
<g id="Group_3">
<path id="Vector_5" d="M64.7606 36.0357C64.7606 34.673 64.8822 33.3239 64.9768 32.0287C64.5714 32.0017 64.1526 31.9612 63.8418 31.8668C62.7609 31.6105 62.4231 30.9764 62.4231 30.032C62.4231 28.8042 63.0176 27.8868 64.2607 28.0082C64.5714 28.0352 64.9227 28.0352 65.3686 28.0757C65.4902 26.9019 65.6523 25.7686 65.7739 24.8917C65.9631 23.6909 67.044 23.2188 68.3411 23.2188C70.0841 23.2188 71.0569 23.8528 70.9624 25.0536C70.9353 25.5933 70.6786 27.1043 70.557 28.2376C71.5433 28.2376 72.5837 28.2106 73.7187 28.1162C74.8942 27.9947 75.4887 28.8987 75.4887 30.0724C75.4887 31.0168 74.9482 31.7184 73.7187 31.8398C72.7053 31.9343 71.4758 31.9612 70.1787 31.9612C70.0571 33.3509 70.0166 34.808 70.0166 36.1571C70.0166 40.1371 70.4895 41.1759 71.1515 41.1759C71.5974 41.1759 72.0973 40.7982 72.9215 39.8538C73.4214 39.2871 73.9079 38.8419 74.2862 38.8419C75.5157 38.8419 76.5021 39.8268 76.5021 41.149C76.5021 41.837 75.9616 42.3227 75.0158 43.3211C73.8133 44.6433 71.6379 45.5877 69.7058 45.5877C66.3549 45.5877 64.7741 42.714 64.7741 36.0222L64.7606 36.0357Z" fill="white"/>
<path id="Vector_6" d="M82.4607 18.8887C83.339 18.8887 84.6361 19.2934 84.5415 20.6291C84.3524 23.6647 84.0416 27.1994 83.9065 31.2739C84.8523 29.2502 87.0411 27.7661 89.2435 27.7661C92.8781 27.7661 94.4589 30.7072 94.4589 35.8205C94.4589 38.6942 93.7969 41.6219 93.7699 43.9964C93.7699 45.1297 92.8781 45.7368 91.2027 45.7368C89.9326 45.7368 88.9327 45.1431 88.9327 43.9964C88.9598 41.6893 89.5948 38.8156 89.5948 35.9824C89.5948 34.1206 89.0949 32.2857 87.7302 32.2857C85.5549 32.2857 84.2578 35.4428 84.1226 38.7886C84.0956 39.7061 84.0011 42.8631 83.9605 43.7805C83.893 44.9813 82.9201 45.5479 81.8797 45.5479C79.6368 45.5479 78.7856 44.9543 78.8126 42.9845C78.8802 36.0769 79.2855 27.0375 79.6909 20.6291C79.7855 19.3069 80.8664 18.8887 82.4472 18.8887H82.4607Z" fill="white"/>
<path id="Vector_7" d="M101.566 27.7522C103.336 27.7522 104.228 28.3863 104.228 29.641C104.228 35.3614 103.498 38.1002 103.403 43.915C103.376 45.0888 102.363 45.6554 100.782 45.6554C98.5392 45.6554 98.1609 44.5761 98.1609 43.6317C98.1609 42.6873 99.0391 33.8773 99.0391 29.641C99.0391 28.3728 100.404 27.7522 101.566 27.7522ZM101.782 19.8057C104.498 19.8057 105.065 21.3572 105.065 22.396C105.065 24.1634 103.741 25.2697 101.836 25.2697C100.066 25.2697 98.931 24.4198 98.931 22.7468C98.931 20.9794 100.201 19.8057 101.782 19.8057Z" fill="white"/>
<path id="Vector_8" d="M111.051 27.4688C112.632 27.4688 113.294 28.2513 113.294 28.9258C113.294 29.4655 113.037 30.4099 113.037 31.5837C113.794 29.9107 115.023 27.7925 118.374 27.7925C122.076 27.7925 123.941 30.7337 123.941 35.051C123.941 38.3969 123.049 41.0142 123.049 43.8339C123.049 44.7514 122.171 45.6013 120.333 45.6013C118.496 45.6013 117.861 44.7514 117.861 43.6721C117.861 40.8253 118.847 38.8691 118.847 35.7121C118.847 33.2161 118.185 32.3662 116.982 32.3662C115.185 32.3662 113.915 35.2129 113.28 37.4795C113.402 39.8135 113.442 42.188 113.307 43.9554C113.24 44.8323 112.483 45.6283 110.686 45.6283C108.213 45.6283 107.93 44.3331 107.93 42.9435C107.93 41.4594 108.024 39.7865 108.376 38.208C108.213 33.6344 108.065 30.7877 108.376 28.9933C108.592 27.86 109.362 27.4822 111.037 27.4822L111.051 27.4688Z" fill="white"/>
<path id="Vector_9" d="M131.413 19.2393C133.277 19.2393 133.629 20.0892 133.629 21.1011C133.629 22.6121 132.967 25.931 132.615 33.7966C133.156 33.4863 136.817 30.4507 139.195 28.5214C139.83 27.9818 140.33 27.7659 141.033 27.7659C142.897 27.7659 143.438 29.6952 143.438 30.4237C143.438 30.8285 143.316 31.2737 142.803 31.6919C141.411 32.7712 138.912 34.6331 137.115 35.9552C137.655 36.8052 138.29 37.8845 138.885 38.8289C139.668 40.0971 140.276 40.7852 141.033 40.7852C141.627 40.7852 142.141 40.1916 142.803 39.4226C143.154 39.0178 143.56 38.7345 144.032 38.7345C145.208 38.7345 146.275 39.8678 146.275 40.9471C146.275 41.6756 145.829 42.3637 145.262 42.8764C143.992 44.0771 142.006 45.4668 139.857 45.4668C137.452 45.4668 136.128 44.0097 134.804 41.932C133.723 40.1646 133.25 38.9908 132.534 37.7631C132.467 40.0027 132.372 42.0939 132.345 43.8208C132.318 45.116 131.561 45.5207 130.007 45.5207C128.021 45.5207 127.224 45.116 127.251 43.8208C127.508 36.279 127.886 28.1571 128.575 20.8313C128.67 19.7519 129.264 19.2527 131.426 19.2527L131.413 19.2393Z" fill="white"/>
<path id="Vector_10" d="M147.816 43.3485C147.816 41.6081 148.924 39.9756 151.139 39.9756C153.126 39.9756 154.085 41.1763 154.085 42.6874C154.085 44.3873 152.666 45.8174 150.856 45.8174C149.18 45.8174 147.816 44.873 147.816 43.3485Z" fill="white"/>
<path id="Vector_11" d="M169.515 30.9764C169.515 31.8264 169.042 32.9057 167.583 32.9057C166.894 32.9057 166.407 32.4605 165.813 32.0288C165.178 31.5296 164.543 31.1113 163.192 31.1113C161.841 31.1113 161.111 31.5836 161.111 32.3121C161.111 33.1351 161.868 33.3914 164.773 34.7136C167.178 35.8199 168.826 37.7762 168.826 40.0832C168.826 43.0244 165.759 45.6012 162.286 45.6012C160.773 45.6012 159.341 45.2235 158.436 44.5624C157.301 43.9013 156.598 42.9569 156.598 41.9046C156.598 40.9602 157.233 40.1102 158.395 40.1102C158.936 40.1102 159.53 40.3935 159.949 40.8657C160.584 41.5538 160.935 41.8776 162.07 41.8776C163.043 41.8776 164.002 41.4054 164.002 40.6094C164.002 40.0697 163.719 39.53 160.273 37.992C157.557 36.7643 156.098 35.3747 156.098 32.5954C156.098 29.8162 158.814 27.3877 163.084 27.3877C164.637 27.3877 166.529 27.8329 167.894 28.7099C168.839 29.2765 169.542 30.032 169.542 30.9764H169.515Z" fill="white"/>
<path id="Vector_12" d="M170.934 30.0057C170.934 28.832 171.596 28.3058 172.42 28.2653L173.812 28.1979C173.974 27.0241 174.096 25.9313 174.163 25.4456C174.352 23.8941 175.487 23.4219 176.825 23.4219C178.311 23.4219 179.487 23.8941 179.324 25.4456C179.324 25.8503 179.203 26.8352 179.041 27.9146L182.229 27.7257C183.554 27.6582 183.972 28.6026 183.972 29.4931C183.972 30.5724 183.567 31.4223 182.486 31.4763L178.568 31.6922C178.284 33.8643 178 36.3063 178.027 37.7903C178.054 39.7466 178.622 40.9204 179.392 40.9204C180.338 40.9204 180.622 40.2323 180.784 39.976C181.23 39.3149 181.797 38.9641 182.338 38.9641C183.702 38.9641 184.459 39.9085 184.459 41.0418C184.459 41.9592 184.053 42.8092 183.378 43.5377C182.243 44.8059 180.405 45.6559 178.473 45.6559C173.92 45.6559 172.785 41.1362 172.785 37.6959C172.785 35.8341 173.001 33.8778 173.285 31.9755L172.434 32.0429C171.447 32.1104 170.947 31.0985 170.947 29.9922L170.934 30.0057Z" fill="white"/>
<path id="Vector_13" d="M189.715 27.8873C191.553 27.8873 193.093 28.9262 192.687 30.6936C192.404 31.8673 192.052 34.2014 192.052 35.9283C192.052 39.0583 192.809 40.8257 194.039 40.8257C195.457 40.8257 196.89 38.7075 197.322 35.5505C197.579 32.9871 197.511 31.4491 197.511 30.3698C197.511 28.481 198.687 27.8738 200.267 27.8738C202.294 27.8738 202.889 28.5349 202.889 30.869C202.889 32.5419 202.767 34.3363 202.51 35.6719C202.348 38.9908 202.321 40.0297 202.321 41.19C202.321 42.4177 202.389 43.0788 202.443 43.8748C202.564 44.9136 201.686 45.8985 200.105 45.8985C198.362 45.8985 197.511 44.8866 197.511 43.2407C197.511 42.7685 197.511 42.4851 197.538 41.878C196.052 44.374 194.471 45.5072 192.539 45.5072C189.066 45.5072 186.661 42.1883 186.661 36.1037C186.661 34.2149 186.945 31.7459 187.418 29.5063C187.702 28.2786 188.648 27.8604 189.688 27.8604L189.715 27.8873Z" fill="white"/>
<path id="Vector_14" d="M220.386 18.8613C222.278 18.8613 223.291 19.3335 223.196 20.8851C222.696 28.2109 222.372 36.2654 222.061 43.8071C221.994 45.1293 220.737 45.6015 219.305 45.6015C217.873 45.6015 217.035 44.9404 217.035 44.1174C217.035 43.5238 217.157 42.9841 217.197 42.1342C215.968 44.5357 214.009 45.5475 211.887 45.5475C207.428 45.5475 205.821 41.1898 205.821 37.8169C205.821 32.825 209.05 27.7522 213.914 27.7522C215.116 27.7522 216.251 28.0625 217.454 28.7371C217.616 25.8634 217.805 23.0167 217.994 20.7501C218.062 19.3605 219.008 18.8883 220.399 18.8883L220.386 18.8613ZM213.171 41.2437C215.008 41.2437 216.522 38.0867 216.684 35.9686C216.711 35.7527 216.778 35.5638 216.995 35.4019L217.157 32.6227C216.332 31.9616 215.697 31.7727 214.846 31.7727C213.049 31.7727 211.185 33.729 211.185 37.6145C211.185 39.4764 211.752 41.2437 213.171 41.2437Z" fill="white"/>
<path id="Vector_15" d="M228.925 27.8468C229.655 27.8468 231.641 28.346 231.641 29.7356C231.641 30.9364 230.857 32.5149 230.857 36.333C230.857 39.6519 231.303 41.001 232.56 41.001C233.641 41.001 234.87 39.7328 235.6 38.2893V36.8727C235.6 33.9315 235.789 30.8419 236.451 29.169C236.802 28.2516 237.464 27.7119 238.532 27.7119C240.869 27.7119 241.153 28.6563 241.153 30.1134C241.153 32.7038 240.896 35.7259 240.14 38.3162C240.167 39.6384 240.329 41.0685 240.329 42.4581C240.329 48.4214 238.937 54.3307 232.681 54.3307C229.33 54.3307 226.763 52.7791 225.696 50.9173C225.439 50.4451 225.412 50.0943 225.412 49.8785C225.412 48.6507 226.966 47.5444 227.871 47.5444C228.439 47.5444 228.858 47.8547 229.263 48.4349C230.141 49.6626 231.222 50.1753 232.425 50.1753C234.695 50.1753 235.303 48.246 235.613 42.9438C234.6 44.5223 233.465 45.6286 231.6 45.6286C227.115 45.6286 225.817 41.5812 225.817 36.5084C225.817 34.0394 226.263 31.0443 226.601 29.3174C226.858 28.1436 227.385 27.8603 228.912 27.8603L228.925 27.8468Z" fill="white"/>
</g>
</g>
</svg>
